PathFileType	4	(X/Y/Z)	 s05c0301.trc
DataRate	CameraRate	NumFrames	NumMarkers	Units	OrigDataRate	OrigDataStartFrame	OrigNumFrames
200	200	5	50	mm	200	251	2000
Frame#	Time	racr			lacr			c7			jug			rlel			rdr			llel			ldr			s2			lic			ric			lasi			rasi			rpsi			lpsi			rgt			lgt			rth1			rth2			rth3			rth4			rlfc			rmfc			rsh1			rsh2			rsh3			rsh4			rlmal			rmmal			rcal			rtoe			rmt5			lth1			lth2			lth4			lth3			llfc			lmfc			lsh1			lsh2			lsh3			lsh4			llmal			lmmal			lcal			ltoe			lmt5			SBIKE			LBIKE			RBIKE			
		X1	Y1	Z1	X2	Y2	Z2	X3	Y3	Z3	X4	Y4	Z4	X5	Y5	Z5	X6	Y6	Z6	X7	Y7	Z7	X8	Y8	Z8	X9	Y9	Z9	X10	Y10	Z10	X11	Y11	Z11	X12	Y12	Z12	X13	Y13	Z13	X14	Y14	Z14	X15	Y15	Z15	X16	Y16	Z16	X17	Y17	Z17	X18	Y18	Z18	X19	Y19	Z19	X20	Y20	Z20	X21	Y21	Z21	X22	Y22	Z22	X23	Y23	Z23	X24	Y24	Z24	X25	Y25	Z25	X26	Y26	Z26	X27	Y27	Z27	X28	Y28	Z28	X29	Y29	Z29	X30	Y30	Z30	X31	Y31	Z31	X32	Y32	Z32	X33	Y33	Z33	X34	Y34	Z34	X35	Y35	Z35	X36	Y36	Z36	X37	Y37	Z37	X38	Y38	Z38	X39	Y39	Z39	X40	Y40	Z40	X41	Y41	Z41	X42	Y42	Z42	X43	Y43	Z43	X44	Y44	Z44	X45	Y45	Z45	X46	Y46	Z46	X47	Y47	Z47	X48	Y48	Z48	X49	Y49	Z49	X50	Y50	Z50	
251	1.2550	414.290139	1361.949004	-126.374727	420.724702	1377.118859	-418.721979	400.880929	1455.952938	-275.157922	384.176565	1297.658711	-275.986405	504.863796	1117.652931	-34.465043	684.453001	919.645875	-76.596589	498.700707	1120.807735	-505.115813	685.422330	922.138619	-437.921684	-108.507357	1160.403288	-268.031863	39.891778	1175.238190	-410.602860	41.780567	1195.116792	-132.787892	89.977441	1123.958522	-377.470159	82.988632	1134.309688	-158.351170	-76.900314	1207.274649	-229.816991	-73.321875	1208.543770	-314.793744	2.981236	1070.615266	-93.283995	-31.073670	1066.147158	-435.941062	103.561384	1014.602602	-78.146677	192.217148	1002.537645	-70.497656	260.559253	946.817271	-70.660624	206.712759	1035.018713	-82.967872	395.667625	869.943746	-95.714974	384.473988	866.828224	-204.692272	331.357944	778.167161	-75.711094	320.829452	690.358665	-88.727280	271.421400	620.978336	-95.295113	349.905515	683.281106	-113.338517	228.789996	495.536883	-110.181313	243.145097	525.419229	-188.006023	157.591513	463.964404	-157.691483	451.626234	439.392486	-145.291919	349.068239	416.076572	-82.929870	48.110445	947.922873	-458.310249	116.723554	896.349717	-461.219748	146.573406	916.447430	-449.401118	149.990510	811.938988	-462.836895	223.790226	679.052690	-440.566111	213.210050	671.536708	-331.064784	133.696590	587.899489	-461.387298	98.110076	508.847146	-446.234238	25.890509	457.434880	-444.350125	122.473010	493.232880	-421.207889	-45.389698	356.253263	-431.714699	-13.008440	376.664506	-354.952388	-116.827120	331.374596	-386.924120	163.541916	242.818418	-396.471659	52.168628	244.021587	-457.906531	-215.395060	914.138473	-268.405479	-43.736076	85.063507	-475.018410	-51.888148	80.138874	-77.517132	
252	1.2600	414.292842	1361.969799	-126.381578	420.708323	1377.120956	-418.712735	400.857596	1455.960728	-275.140203	384.162127	1297.628353	-275.994257	504.854791	1117.668814	-34.476907	684.466456	919.663412	-76.618912	498.718709	1120.806177	-505.085708	685.405571	922.140791	-437.901205	-108.519555	1160.390713	-268.037574	39.879073	1175.231820	-410.623081	41.772644	1195.119891	-132.817196	89.955683	1123.959280	-377.487730	82.957846	1134.321676	-158.350353	-76.909806	1207.268715	-229.837194	-73.325561	1208.545356	-314.819232	2.955488	1070.639261	-93.285855	-31.085511	1066.139536	-435.927938	103.574686	1014.661430	-78.135156	192.185095	1002.613092	-70.489229	260.544446	946.927459	-70.641147	206.695993	1035.087101	-82.964500	395.678878	870.066649	-95.698486	384.515275	866.946303	-204.654888	331.362452	778.336144	-75.701604	320.809344	690.568615	-88.719952	271.389355	621.161543	-95.273415	349.889555	683.413354	-113.329573	228.735712	495.696646	-110.171085	243.127692	525.556886	-188.007187	157.545619	464.145429	-157.653496	451.583177	439.471302	-145.276454	348.760684	416.768292	-82.466027	48.094743	947.900182	-458.303536	116.712201	896.312758	-461.210404	146.561344	916.403626	-449.398083	149.966274	811.891106	-462.812253	223.746581	679.012699	-440.561018	213.169586	671.488590	-331.085791	133.677696	587.829576	-461.383491	98.128788	508.754641	-446.229415	25.907467	457.341863	-444.346110	122.488940	493.180846	-421.196579	-45.353444	356.141163	-431.692716	-12.959099	376.503207	-354.970360	-116.782710	331.247404	-386.924551	163.609273	242.715103	-396.461034	52.231391	243.892337	-457.911305	-215.391380	914.135083	-268.406633	-43.729691	85.058412	-475.020234	-51.883688	80.153059	-77.523673	
253	1.2650	414.280549	1361.978516	-126.391198	420.711566	1377.134233	-418.697554	400.858597	1455.944173	-275.168431	384.144047	1297.602856	-275.987276	504.846384	1117.666919	-34.497728	684.460925	919.669048	-76.631272	498.707703	1120.814762	-505.103628	685.405348	922.140923	-437.913523	-108.540189	1160.387583	-268.061820	39.881506	1175.210179	-410.613398	41.772642	1195.119874	-132.817159	89.942688	1123.952200	-377.498606	82.941155	1134.341163	-158.360301	-76.943422	1207.266881	-229.848074	-73.343258	1208.537393	-314.808359	2.949364	1070.671422	-93.290326	-31.082585	1066.115356	-435.933834	103.556439	1014.717901	-78.114363	192.180002	1002.686462	-70.472299	260.573530	947.020377	-70.634376	206.671178	1035.169499	-82.946459	395.713881	870.189789	-95.661632	384.556494	867.079381	-204.626565	331.360108	778.500416	-75.690909	320.840893	690.694026	-88.710114	271.350915	621.352873	-95.268701	349.879795	683.570281	-113.302650	228.688771	495.916236	-110.177397	243.057229	525.759596	-188.038219	157.517468	464.364039	-157.671628	451.538411	439.547603	-145.282941	348.701305	416.903918	-82.467496	48.071986	947.888416	-458.297148	116.678165	896.292083	-461.221494	146.531176	916.368673	-449.412673	149.923970	811.862431	-462.797074	223.691077	678.968503	-440.540926	213.116913	671.443499	-331.070328	133.666340	587.755370	-461.379926	98.135489	508.666843	-446.239727	25.926257	457.220573	-444.365339	122.518036	493.138105	-421.200870	-45.309689	356.020870	-431.687152	-12.852328	376.327457	-354.995310	-116.732119	331.134688	-386.928764	163.658430	242.636227	-396.462974	52.308813	243.761109	-457.911360	-215.383351	914.135032	-268.402313	-43.741328	85.043634	-475.019343	-51.884290	80.134068	-77.522047	
254	1.2700	414.261973	1362.007470	-126.429332	420.702420	1377.129676	-418.684971	400.854141	1455.944768	-275.184983	384.114870	1297.615167	-276.006190	504.821890	1117.672056	-34.496420	684.463215	919.695423	-76.639000	498.688732	1120.800500	-505.111310	685.396190	922.158794	-437.947513	-108.555789	1160.374083	-268.061555	39.852850	1175.210300	-410.627992	41.723415	1195.149100	-132.825054	89.915665	1123.952622	-377.509526	82.920602	1134.373018	-158.379575	-76.953675	1207.260399	-229.874561	-73.350002	1208.504073	-314.830825	2.938001	1070.690152	-93.301417	-31.114514	1066.106598	-435.936728	103.551310	1014.747812	-78.098488	192.173324	1002.769030	-70.469609	260.577221	947.127654	-70.570043	206.636514	1035.253711	-82.955222	395.726446	870.292195	-95.655692	384.587664	867.195450	-204.554979	331.362297	778.652297	-75.693543	320.860490	690.881011	-88.709786	271.333569	621.516764	-95.260071	349.886526	683.706130	-113.272618	228.660513	496.053210	-110.203174	243.062538	525.838615	-188.014728	157.496832	464.538002	-157.684686	451.493560	439.626645	-145.275301	348.627051	417.054722	-82.468703	48.034951	947.983870	-458.237712	116.648680	896.257390	-461.208291	146.493327	916.345033	-449.413648	149.887082	811.831144	-462.789948	223.640510	678.943217	-440.527854	213.071050	671.406959	-331.052660	133.637294	587.699195	-461.383645	98.137835	508.579491	-446.244479	25.949840	457.130822	-444.348867	122.493594	493.055531	-421.172691	-45.262917	355.924175	-431.708699	-12.802269	376.196742	-354.982308	-116.675446	331.016681	-386.946925	163.716729	242.535422	-396.462967	52.374900	243.664472	-457.913696	-215.395357	914.139185	-268.403770	-43.739764	85.053111	-475.008061	-51.875541	80.144351	-77.515074	
255	1.2750	414.271268	1362.010528	-126.458339	420.701542	1377.137064	-418.651250	400.813770	1455.926435	-275.154670	384.092788	1297.595198	-276.006681	504.776751	1117.656154	-34.483543	684.442325	919.716009	-76.630482	498.675657	1120.777627	-505.132456	685.363277	922.152919	-437.906400	-108.577991	1160.376917	-268.079948	39.834095	1175.192058	-410.641675	41.657456	1195.199107	-132.831913	89.914663	1123.947316	-377.509907	82.893895	1134.392048	-158.368204	-76.972917	1207.273823	-229.900934	-73.364373	1208.506618	-314.848444	2.901266	1070.701071	-93.289523	-31.105770	1066.081743	-435.930260	103.549908	1014.787933	-78.081877	192.170346	1002.830486	-70.452761	260.572527	947.224618	-70.571863	206.625753	1035.335067	-82.961865	395.752363	870.435323	-95.625159	384.617411	867.313618	-204.595800	331.370095	778.776455	-75.676982	320.859255	691.034795	-88.710943	271.296199	621.703656	-95.264579	349.843329	683.801666	-113.258809	228.632055	496.220183	-110.192596	243.019834	526.013575	-188.037967	157.449990	464.685752	-157.693638	451.429831	439.712402	-145.277065	348.549216	417.162678	-82.476851	48.054272	947.854161	-458.284888	116.613848	896.241819	-461.220438	146.475099	916.309187	-449.409372	149.843919	811.809311	-462.797850	223.592709	678.899040	-440.521312	213.010301	671.346061	-331.054833	133.621975	587.655980	-461.375980	98.143786	508.484119	-446.239081	25.982060	457.044328	-444.343693	122.509222	493.004923	-421.169660	-45.203640	355.832533	-431.704423	-12.778518	376.132250	-354.978455	-116.614273	330.903071	-386.946161	163.779695	242.441555	-396.455546	52.447023	243.548375	-457.912716	-215.391558	914.130434	-268.396832	-43.732526	85.054705	-475.018785	-51.874565	80.129571	-77.530603	
